<svg width="12" height="14" viewBox="0 0 12 14" fill="none" xmlns="http://www.w3.org/2000/svg">
<path d="M11.25 0.25H2.25C1.65326 0.25 1.08097 0.487053 0.65901 0.90901C0.237053 1.33097 0 1.90326 0 2.5V11.5C0 12.0967 0.237053 12.669 0.65901 13.091C1.08097 13.5129 1.65326 13.75 2.25 13.75H11.25C11.4489 13.75 11.6397 13.671 11.7803 13.5303C11.921 13.3897 12 13.1989 12 13V1C12 0.801088 11.921 0.610322 11.7803 0.46967C11.6397 0.329018 11.4489 0.25 11.25 0.25ZM2.25 1.75H10.5V9.25H2.25C1.99414 9.25203 1.74051 9.29768 1.5 9.385V2.5C1.5 2.30109 1.57902 2.11032 1.71967 1.96967C1.86032 1.82902 2.05109 1.75 2.25 1.75ZM2.25 12.25C2.05109 12.25 1.86032 12.171 1.71967 12.0303C1.57902 11.8897 1.5 11.6989 1.5 11.5C1.5 11.3011 1.57902 11.1103 1.71967 10.9697C1.86032 10.829 2.05109 10.75 2.25 10.75H10.5V12.25H2.25Z" fill="#0093E9"/>
</svg>
