<svg width="20" height="20" viewBox="0 0 20 20" fill="none" xmlns="http://www.w3.org/2000/svg">
<path d="M8.25 11C8.25 11.3315 8.1183 11.6495 7.88388 11.8839C7.64946 12.1183 7.33152 12.25 7 12.25C6.66848 12.25 6.35054 12.1183 6.11612 11.8839C5.8817 11.6495 5.75 11.3315 5.75 11C5.75 10.6685 5.8817 10.3505 6.11612 10.1161C6.35054 9.8817 6.66848 9.75 7 9.75C7.33152 9.75 7.64946 9.8817 7.88388 10.1161C8.1183 10.3505 8.25 10.6685 8.25 11ZM13 9.75C12.6685 9.75 12.3505 9.8817 12.1161 10.1161C11.8817 10.3505 11.75 10.6685 11.75 11C11.75 11.3315 11.8817 11.6495 12.1161 11.8839C12.3505 12.1183 12.6685 12.25 13 12.25C13.3315 12.25 13.6495 12.1183 13.8839 11.8839C14.1183 11.6495 14.25 11.3315 14.25 11C14.25 10.6685 14.1183 10.3505 13.8839 10.1161C13.6495 9.8817 13.3315 9.75 13 9.75ZM20 10C20 15.52 15.52 20 10 20C4.48 20 0 15.52 0 10C0 4.48 4.48 0 10 0C15.52 0 20 4.48 20 10ZM8.66 2.12C10.06 4.44 12.6 6 15.5 6C15.96 6 16.41 5.95 16.84 5.88C15.44 3.56 12.9 2 10 2C9.54 2 9.09 2.05 8.66 2.12ZM2.42 7.47C4.14559 6.49175 5.44901 4.91056 6.08 3.03C4.35441 4.00825 3.05099 5.58945 2.42 7.47ZM18 10C18 9.22 17.88 8.47 17.67 7.76C16.97 7.91 16.25 8 15.5 8C14.0136 8.00032 12.5458 7.66928 11.2035 7.03097C9.8611 6.39266 8.67792 5.46312 7.74 4.31C7.21492 5.57924 6.43439 6.72691 5.44693 7.68169C4.45947 8.63646 3.28619 9.37793 2 9.86C2.01 9.9 2 9.95 2 10C2 14.41 5.59 18 10 18C14.41 18 18 14.41 18 10Z" fill="#A7A7A7"/>
</svg>
