<svg width="24" height="15" viewBox="0 0 24 15" fill="none" xmlns="http://www.w3.org/2000/svg">
<path d="M12 3.39999C13.9882 3.39999 15.6 5.28022 15.6 7.59999C15.6 9.92012 13.9875 11.8 12 11.8C10.0118 11.8 8.4 9.91935 8.4 7.59999C8.4 5.28022 10.0118 3.39999 12 3.39999ZM13.5 9.69999V9.09999C13.5 8.93424 13.3657 8.79999 13.2 8.79999H12.6V5.49999C12.6 5.33424 12.4657 5.19999 12.3 5.19999H11.7907C11.6066 5.19999 11.4343 5.25598 11.2916 5.35112L10.7168 5.73436C10.636 5.78808 10.5833 5.88 10.5833 5.98415C10.5833 6.04557 10.6018 6.1027 10.6335 6.15023L10.9665 6.64937C11.0202 6.73009 11.1122 6.78286 11.2163 6.78286C11.2777 6.78286 11.3348 6.76433 11.3824 6.73261L11.4 6.72097V8.79998H10.8C10.6343 8.79998 10.5 8.93424 10.5 9.09998V9.69998C10.5 9.86573 10.6343 9.99998 10.8 9.99998H13.2C13.3657 9.99998 13.5 9.86573 13.5 9.69998L13.5 9.69999ZM22.8 0.399987C23.4626 0.399987 24 0.937366 24 1.59999V13.6C24 14.2626 23.4626 14.8 22.8 14.8H1.2C0.537379 14.8 0 14.2626 0 13.6V1.59999C0 0.937366 0.537379 0.399987 1.2 0.399987H22.8ZM22.2 10.6V4.59999C20.8744 4.59999 19.8 3.5256 19.8 2.19999H4.2C4.2 3.5256 3.12561 4.59999 1.8 4.59999V10.6C3.12561 10.6 4.2 11.6744 4.2 13H19.8C19.8 11.6744 20.8744 10.6 22.2 10.6Z" fill="white"/>
</svg>
